HIERARCHY
ROOT Hips
{
  OFFSET 0 0 0
  CHANNELS 6 Xposition Yposition Zposition Zrotation Yrotation Xrotation
  JOINT LeftThigh
  {
    OFFSET 8.509551 0 -5.988202
    CHANNELS 3 Zrotation Yrotation Xrotation
    JOINT LeftLeg
    {
      OFFSET 0 0 -42.862921
      CHANNELS 3 Zrotation Yrotation Xrotation
      JOINT LeftFoot
      {
        OFFSET 0 0 -39.825843
        CHANNELS 3 Zrotation Yrotation Xrotation
        End Site
        {
          OFFSET 0 -13.487303 -5.068483
        }
      }
    }
  }
  JOINT RightThigh
  {
    OFFSET -8.509551 0 -5.988202
    CHANNELS 3 Zrotation Yrotation Xrotation
    JOINT RightLeg
    {
      OFFSET 0 0 -42.862921
      CHANNELS 3 Zrotation Yrotation Xrotation
      JOINT RightFoot
      {
        OFFSET 0 0 -39.825843
        CHANNELS 3 Zrotation Yrotation Xrotation
        End Site
        {
          OFFSET 0 -13.487303 -5.068483
        }
      }
    }
  }
  JOINT SpineLow
  {
    OFFSET 0 0 4.775281
    CHANNELS 3 Zrotation Yrotation Xrotation
    JOINT SpineMid
    {
      OFFSET 0 0 13.052753
      CHANNELS 3 Zrotation Yrotation Xrotation
      JOINT Chest
      {
        OFFSET 0 0 13.052753
        CHANNELS 3 Zrotation Yrotation Xrotation
        JOINT LeftShoulder
        {
          OFFSET 7.640449 1.432584 9.550562
          CHANNELS 3 Zrotation Yrotation Xrotation
          JOINT LeftArm
          {
            OFFSET 9.264045 0 4.297753
            CHANNELS 3 Zrotation Yrotation Xrotation
            JOINT LeftForearm
            {
              OFFSET 0 0 26.078764
              CHANNELS 3 Zrotation Yrotation Xrotation
              JOINT LeftHand
              {
                OFFSET 0 0 25.497135
                CHANNELS 3 Zrotation Yrotation Xrotation
              }
            }
          }
        }
        JOINT RightShoulder
        {
          OFFSET -7.640449 1.432584 9.550562
          CHANNELS 3 Zrotation Yrotation Xrotation
          JOINT RightArm
          {
            OFFSET -9.264045 0 4.297753
            CHANNELS 3 Zrotation Yrotation Xrotation
            JOINT RightForearm
            {
              OFFSET 0 0 -26.078764
              CHANNELS 3 Zrotation Yrotation Xrotation
              JOINT RightHand
              {
                OFFSET 0 0 -25.497135
                CHANNELS 3 Zrotation Yrotation Xrotation
              }
            }
          }
        }
        JOINT Neck
        {
          OFFSET 0 0 15.280899
          CHANNELS 3 Zrotation Yrotation Xrotation
          JOINT Head
          {
            OFFSET 0 0 11.460674
            CHANNELS 3 Zrotation Yrotation Xrotation
            End Site
            {
              OFFSET 0 0 7.325843
            }
          }
        }
      }
    }
  }
}
MOTION
Frames: 5
Frame Time: 0.01
72.4986780081978  69.856736983352  20.5949620350376  5.048082  -14.241987  -94.579267  47.479196  -36.428237  -29.380529  -18.550497  13.460964  26.614419  -12.161883  26.777853  -2.282121  -26.269672  37.303842  -33.35892  9.841786  -0.911355  51.351744  23.662122  -12.364708  -20.791887  3.858263  0.001809  0.718353  10.545168  -0.109456  1.958097  10.545168  -0.109457  1.958097  0.32269  8.288144  1.13288  165.025379  75.337462  -165.63174  -9.494795  14.414189  17.734173  99.657213  -11.072007  -91.435145  7.798095  -6.760593  11.03922  41.299734  17.268168  27.283757  -55.898706  43.863639  -154.67768  105.125672  14.740841  1.894427  28.237142  4.005775  6.360657  21.130366  3.30721  4.594675  
72.5677109852933  69.8733702523284  20.7016358511571  5.030057  -14.220897  -94.598939  47.437273  -36.451461  -29.361595  -18.495292  13.491721  26.79443  -12.266144  26.714391  -2.397716  -26.172979  37.260367  -33.270519  9.886677  -0.841921  51.379743  23.591658  -12.30635  -20.755767  3.853535  0.00654  0.713044  10.532398  -0.095581  1.944392  10.532397  -0.095581  1.944392  0.293142  8.139064  1.195133  165.67355  75.804607  -164.988603  -8.92926  14.72871  17.051472  99.478446  -10.942308  -91.346553  7.532576  -6.710037  11.164111  41.057776  16.995987  27.673889  -53.526151  42.697478  -152.684535  104.67417  15.134084  2.545746  28.373284  3.976124  6.347681  21.232958  3.285815  4.585554  
72.6075904195073  69.8871737080549  20.759834524183  5.040978  -14.186345  -94.672518  47.360936  -36.513096  -29.269172  -18.527827  13.582414  26.83173  -12.174776  26.654987  -2.367553  -26.025009  37.293465  -33.067369  9.916491  -0.782011  51.34502  23.46929  -12.249852  -20.694673  3.838578  0.008767  0.715242  10.491577  -0.089419  1.950777  10.491578  -0.089419  1.950777  0.324123  8.044479  1.181941  165.907383  76.239382  -164.723531  -8.439447  15.016015  16.372871  99.316456  -10.823775  -91.15465  7.288232  -6.633892  11.288584  40.709199  16.763799  28.059999  -51.012844  41.39253  -150.716981  104.113313  15.523624  3.244467  28.399499  3.927245  6.326719  21.253447  3.248372  4.571983  
72.68905294293  69.907850521423  20.806591391253  5.056951  -14.268424  -94.734255  47.338616  -36.544831  -29.187351  -18.390541  13.595671  27.020457  -12.295802  26.548457  -2.488465  -25.630245  37.339815  -32.883687  9.921302  -0.76961  51.379039  23.269144  -12.193815  -20.622833  3.833936  0.011526  0.713619  10.478975  -0.081509  1.9468  10.478975  -0.081509  1.9468  0.685431  7.932729  1.185557  165.782102  76.554378  -164.58529  -7.943582  15.225369  15.794019  99.176275  -10.719897  -90.972189  7.10845  -6.522214  11.383068  40.390849  16.46891  28.47328  -48.566646  39.915146  -148.767618  103.324023  15.92565  3.952364  28.618453  3.895259  6.306687  21.418202  3.225785  4.557231  
72.7265527828748  69.9257164967353  20.8351887601783  5.071654  -14.257503  -94.763741  47.260767  -36.560959  -29.11354  -18.351845  13.624693  27.062807  -12.254846  26.506479  -2.446865  -25.471122  37.403057  -32.741033  9.909861  -0.763679  51.360718  23.133582  -12.134007  -20.57176  3.817999  0.019917  0.70404  10.435681  -0.056662  1.922054  10.435682  -0.056662  1.922054  0.948011  7.77037  1.14348  165.508162  76.771478  -164.658731  -7.491223  15.386669  15.242564  99.067287  -10.643032  -90.92195  6.887401  -6.458356  11.497336  40.016106  16.199631  28.875745  -46.056599  38.277317  -146.848114  102.408129  16.367948  4.657153  28.654217  3.829831  6.271874  21.446158  3.175336  4.534015  
